<svg width="381.71998291015626px" height="122.39999389648438px" xmlns="http://www.w3.org/2000/svg" viewBox="59.14000854492187 13.800003051757812 381.71998291015626 122.39999389648438" style="background: none;" preserveAspectRatio="xMidYMid"><defs><filter id="editing-extrusion" x="-100%" y="-100%" width="300%" height="300%"><feFlood result="color1" flood-color="#444"></feFlood><feConvolveMatrix order="8,8" divisor="1" kernelMatrix="1 0 0 0 0 0 0 0 0 1 0 0 0 0 0 0 0 0 1 0 0 0 0 0 0 0 0 1 0 0 0 0 0 0 0 0 1 0 0 0 0 0 0 0 0 1 0 0 0 0 0 0 0 0 1 0 0 0 0 0 0 0 0 1" in="SourceAlpha" result="extrude"></feConvolveMatrix><feComposite in="color1" in2="extrude" result="comp-extrude" operator="in"></feComposite><feOffset dx="4" dy="4" in="comp-extrude" result="offset-extrude"></feOffset><feMerge><feMergeNode in="offset-extrude"></feMergeNode><feMergeNode in="SourceGraphic"></feMergeNode></feMerge></filter></defs><g filter="url(#editing-extrusion)"><g transform="translate(117.57997953891754, 97.43000030517578)"><path d="M34.50-13.25L34.50-13.25L34.50-13.25Q36.16-12.03 36.16-9.44L36.16-9.44L36.16-9.44Q36.16-6.85 35.04-5.02L35.04-5.02L35.04-5.02Q33.92-3.20 31.74-1.79L31.74-1.79L31.74-1.79Q27.07 1.22 18.91 1.22L18.91 1.22L18.91 1.22Q10.75 1.22 6.30-3.04L6.30-3.04L6.30-3.04Q1.86-7.30 1.86-14.85L1.86-14.85L1.86-14.85Q1.86-25.54 7.42-33.66L7.42-33.66L7.42-33.66Q11.65-39.68 19.20-42.24L19.20-42.24L19.20-42.24Q23.10-43.52 26.94-43.52L26.94-43.52L26.94-43.52Q30.78-43.52 33.15-43.01L33.15-43.01L33.15-43.01Q35.52-42.50 37.31-41.47L37.31-41.47L37.31-41.47Q41.22-39.23 41.22-35.65L41.22-35.65L41.22-35.65Q41.22-32.38 38.14-29.95L38.14-29.95L38.14-29.95Q35.33-27.78 33.02-27.78L33.02-27.78L33.02-27.78Q30.72-27.78 29.76-28.10L29.76-28.10L29.76-28.10Q30.02-30.40 30.02-31.90L30.02-31.90L30.02-31.90Q30.02-33.41 29.95-34.50L29.95-34.50L29.95-34.50Q29.89-35.58 29.57-36.61L29.57-36.61L29.57-36.61Q28.93-38.98 26.98-38.98L26.98-38.98L26.98-38.98Q25.02-38.98 23.07-37.15L23.07-37.15L23.07-37.15Q21.12-35.33 19.46-32.26L19.46-32.26L19.46-32.26Q15.68-25.28 15.68-17.02L15.68-17.02L15.68-17.02Q15.68-13.06 17.92-10.78L17.92-10.78L17.92-10.78Q20.16-8.51 24.96-8.51L24.96-8.51L24.96-8.51Q28.54-8.51 31.94-10.88L31.94-10.88L31.94-10.88Q33.41-11.90 34.50-13.25ZM42.43-15.62L42.43-15.62L42.43-15.62Q42.43-27.71 48.70-35.33L48.70-35.33L48.70-35.33Q55.36-43.58 66.94-43.58L66.94-43.58L66.94-43.58Q75.33-43.58 79.55-39.52L79.55-39.52L79.55-39.52Q83.78-35.46 83.78-26.88L83.78-26.88L83.78-26.88Q83.78-13.82 77.12-6.21L77.12-6.21L77.12-6.21Q70.53 1.28 59.46 1.28L59.46 1.28L59.46 1.28Q50.82 1.28 46.62-3.04L46.62-3.04L46.62-3.04Q42.43-7.36 42.43-15.62ZM59.26-28.86L59.26-28.86L59.26-28.86Q56.38-17.34 56.38-8.26L56.38-8.26L56.38-8.26Q56.38-6.08 57.12-4.67L57.12-4.67L57.12-4.67Q57.86-3.26 59.81-3.26L59.81-3.26L59.81-3.26Q61.76-3.26 62.98-4.19L62.98-4.19L62.98-4.19Q64.19-5.12 65.15-7.23L65.15-7.23L65.15-7.23Q66.69-10.69 68.13-18.02L68.13-18.02L68.13-18.02Q69.57-25.34 69.70-28.38L69.70-28.38L69.70-28.38Q69.82-31.42 69.82-33.73L69.82-33.73L69.82-33.73Q69.82-36.03 69.12-37.50L69.12-37.50L69.12-37.50Q68.42-38.98 66.53-38.98L66.53-38.98L66.53-38.98Q64.64-38.98 63.36-37.82L63.36-37.82L63.36-37.82Q60.99-35.65 59.26-28.86ZM93.50 0L86.46 0L94.14-42.24L107.90-42.24L117.89-13.18L123.20-42.24L130.30-42.18L122.50 0L107.84 0L98.62-27.97L93.50 0ZM138.50 0L131.46 0L139.14-42.24L152.90-42.24L162.88-13.18L168.19-42.24L175.30-42.18L167.49 0L152.83 0L143.62-27.97L138.50 0ZM177.86-15.62L177.86-15.62L177.86-15.62Q177.86-27.71 184.13-35.33L184.13-35.33L184.13-35.33Q190.78-43.58 202.37-43.58L202.37-43.58L202.37-43.58Q210.75-43.58 214.98-39.52L214.98-39.52L214.98-39.52Q219.20-35.46 219.20-26.88L219.20-26.88L219.20-26.88Q219.20-13.82 212.54-6.21L212.54-6.21L212.54-6.21Q205.95 1.28 194.88 1.28L194.88 1.28L194.88 1.28Q186.24 1.28 182.05-3.04L182.05-3.04L182.05-3.04Q177.86-7.36 177.86-15.62ZM194.69-28.86L194.69-28.86L194.69-28.86Q191.81-17.34 191.81-8.26L191.81-8.26L191.81-8.26Q191.81-6.08 192.54-4.67L192.54-4.67L192.54-4.67Q193.28-3.26 195.23-3.26L195.23-3.26L195.23-3.26Q197.18-3.26 198.40-4.19L198.40-4.19L198.40-4.19Q199.62-5.12 200.58-7.23L200.58-7.23L200.58-7.23Q202.11-10.69 203.55-18.02L203.55-18.02L203.55-18.02Q204.99-25.34 205.12-28.38L205.12-28.38L205.12-28.38Q205.25-31.42 205.25-33.73L205.25-33.73L205.25-33.73Q205.25-36.03 204.54-37.50L204.54-37.50L204.54-37.50Q203.84-38.98 201.95-38.98L201.95-38.98L201.95-38.98Q200.06-38.98 198.78-37.82L198.78-37.82L198.78-37.82Q196.42-35.65 194.69-28.86ZM235.46 0L221.76 0L229.57-42.05L229.57-42.05Q235.90-42.75 245.15-42.75L245.15-42.75L245.15-42.75Q254.40-42.75 258.69-40.06L258.69-40.06L258.69-40.06Q262.98-37.38 262.98-31.97L262.98-31.97L262.98-31.97Q262.98-26.56 260.19-23.17L260.19-23.17L260.19-23.17Q257.41-19.78 252.61-18.69L252.61-18.69L252.61-18.69Q253.70-13.38 256.19-9.09L256.19-9.09L256.19-9.09Q258.50-5.06 261.18-3.78L261.18-3.78L261.18-3.78Q260.22-1.09 258.27 0.10L258.27 0.10L258.27 0.10Q256.32 1.28 253.54 1.28L253.54 1.28L253.54 1.28Q250.75 1.28 248.58-0.35L248.58-0.35L248.58-0.35Q246.40-1.98 244.67-4.99L244.67-4.99L244.67-4.99Q241.02-11.52 240.64-21.82L240.64-21.82L241.09-21.82L241.09-21.82Q245.82-21.95 248.19-24.42L248.19-24.42L248.19-24.42Q250.56-26.88 250.56-32.06L250.56-32.06L250.56-32.06Q250.56-38.53 245.12-38.78L245.12-38.78L243.71-38.78L243.71-38.78Q243.14-38.78 242.82-38.72L242.82-38.72L235.46 0Z" fill="#ccc"></path></g></g><style>text {
  font-size: 64px;
  font-family: Arial Black;
  dominant-baseline: central;
  text-anchor: middle;
}</style></svg>