<svg id="visual" viewBox="0 0 960 540" width="960" height="540" xmlns="http://www.w3.org/2000/svg" xmlns:xlink="http://www.w3.org/1999/xlink" version="1.1"><rect x="0" y="0" width="960" height="540" fill="#A8A89E"></rect><path d="M0 346L20 350.8C40 355.7 80 365.3 120 364.5C160 363.7 200 352.3 240 354.2C280 356 320 371 360 378C400 385 440 384 480 384.5C520 385 560 387 600 374.8C640 362.7 680 336.3 720 337.8C760 339.3 800 368.7 840 374.3C880 380 920 362 940 353L960 344L960 541L940 541C920 541 880 541 840 541C800 541 760 541 720 541C680 541 640 541 600 541C560 541 520 541 480 541C440 541 400 541 360 541C320 541 280 541 240 541C200 541 160 541 120 541C80 541 40 541 20 541L0 541Z" fill="#646464"></path><path d="M0 416L20 419.5C40 423 80 430 120 432.3C160 434.7 200 432.3 240 423.8C280 415.3 320 400.7 360 394.3C400 388 440 390 480 399.7C520 409.3 560 426.7 600 435.2C640 443.7 680 443.3 720 431.5C760 419.7 800 396.3 840 387.8C880 379.3 920 385.7 940 388.8L960 392L960 541L940 541C920 541 880 541 840 541C800 541 760 541 720 541C680 541 640 541 600 541C560 541 520 541 480 541C440 541 400 541 360 541C320 541 280 541 240 541C200 541 160 541 120 541C80 541 40 541 20 541L0 541Z" fill="#484848"></path><path d="M0 481L20 474.8C40 468.7 80 456.3 120 446.7C160 437 200 430 240 424.8C280 419.7 320 416.3 360 423.3C400 430.3 440 447.7 480 460.3C520 473 560 481 600 482C640 483 680 477 720 476.8C760 476.7 800 482.3 840 474.8C880 467.3 920 446.7 940 436.3L960 426L960 541L940 541C920 541 880 541 840 541C800 541 760 541 720 541C680 541 640 541 600 541C560 541 520 541 480 541C440 541 400 541 360 541C320 541 280 541 240 541C200 541 160 541 120 541C80 541 40 541 20 541L0 541Z" fill="#2d2d2d"></path><path d="M0 516L20 507.3C40 498.7 80 481.3 120 477.8C160 474.3 200 484.7 240 492.2C280 499.7 320 504.3 360 501.7C400 499 440 489 480 486.2C520 483.3 560 487.7 600 488.7C640 489.7 680 487.3 720 485.7C760 484 800 483 840 487.7C880 492.3 920 502.7 940 507.8L960 513L960 541L940 541C920 541 880 541 840 541C800 541 760 541 720 541C680 541 640 541 600 541C560 541 520 541 480 541C440 541 400 541 360 541C320 541 280 541 240 541C200 541 160 541 120 541C80 541 40 541 20 541L0 541Z" fill="#141414"></path></svg>