<svg id="visual" viewBox="0 0 540 960" width="540" height="960" xmlns="http://www.w3.org/2000/svg" xmlns:xlink="http://www.w3.org/1999/xlink" version="1.1"><path d="M0 116L8.2 122.5C16.3 129 32.7 142 49 161.2C65.3 180.3 81.7 205.7 98 215.2C114.3 224.7 130.7 218.3 147 207.2C163.3 196 179.7 180 196 176.8C212.3 173.7 228.7 183.3 245.2 181.8C261.7 180.3 278.3 167.7 294.8 158C311.3 148.3 327.7 141.7 344 141.7C360.3 141.7 376.7 148.3 393 145.2C409.3 142 425.7 129 442 135.3C458.3 141.7 474.7 167.3 491 172.2C507.3 177 523.7 161 531.8 153L540 145L540 0L531.8 0C523.7 0 507.3 0 491 0C474.7 0 458.3 0 442 0C425.7 0 409.3 0 393 0C376.7 0 360.3 0 344 0C327.7 0 311.3 0 294.8 0C278.3 0 261.7 0 245.2 0C228.7 0 212.3 0 196 0C179.7 0 163.3 0 147 0C130.7 0 114.3 0 98 0C81.7 0 65.3 0 49 0C32.7 0 16.3 0 8.2 0L0 0Z" fill="#004cbb"></path><path d="M0 308L8.2 325.7C16.3 343.3 32.7 378.7 49 396.3C65.3 414 81.7 414 98 420.3C114.3 426.7 130.7 439.3 147 436.2C163.3 433 179.7 414 196 407.7C212.3 401.3 228.7 407.7 245.2 406C261.7 404.3 278.3 394.7 294.8 401C311.3 407.3 327.7 429.7 344 439.3C360.3 449 376.7 446 393 446C409.3 446 425.7 449 442 452.2C458.3 455.3 474.7 458.7 491 466.7C507.3 474.7 523.7 487.3 531.8 493.7L540 500L540 143L531.8 151C523.7 159 507.3 175 491 170.2C474.7 165.3 458.3 139.7 442 133.3C425.7 127 409.3 140 393 143.2C376.7 146.3 360.3 139.7 344 139.7C327.7 139.7 311.3 146.3 294.8 156C278.3 165.7 261.7 178.3 245.2 179.8C228.7 181.3 212.3 171.7 196 174.8C179.7 178 163.3 194 147 205.2C130.7 216.3 114.3 222.7 98 213.2C81.7 203.7 65.3 178.3 49 159.2C32.7 140 16.3 127 8.2 120.5L0 114Z" fill="#0059dd"></path><path d="M0 673L8.2 682.7C16.3 692.3 32.7 711.7 49 726C65.3 740.3 81.7 749.7 98 744.8C114.3 740 130.7 721 147 713C163.3 705 179.7 708 196 711.2C212.3 714.3 228.7 717.7 245.2 722.5C261.7 727.3 278.3 733.7 294.8 738.5C311.3 743.3 327.7 746.7 344 738.7C360.3 730.7 376.7 711.3 393 703.3C409.3 695.3 425.7 698.7 442 703.5C458.3 708.3 474.7 714.7 491 721C507.3 727.3 523.7 733.7 531.8 736.8L540 740L540 498L531.8 491.7C523.7 485.3 507.3 472.7 491 464.7C474.7 456.7 458.3 453.3 442 450.2C425.7 447 409.3 444 393 444C376.7 444 360.3 447 344 437.3C327.7 427.7 311.3 405.3 294.8 399C278.3 392.7 261.7 402.3 245.2 404C228.7 405.7 212.3 399.3 196 405.7C179.7 412 163.3 431 147 434.2C130.7 437.3 114.3 424.7 98 418.3C81.7 412 65.3 412 49 394.3C32.7 376.7 16.3 341.3 8.2 323.7L0 306Z" fill="#0066ff"></path><path d="M0 807L8.2 818.3C16.3 829.7 32.7 852.3 49 862C65.3 871.7 81.7 868.3 98 855.5C114.3 842.7 130.7 820.3 147 810.7C163.3 801 179.7 804 196 804C212.3 804 228.7 801 245.2 805.8C261.7 810.7 278.3 823.3 294.8 834.5C311.3 845.7 327.7 855.3 344 847.3C360.3 839.3 376.7 813.7 393 808.8C409.3 804 425.7 820 442 823.2C458.3 826.3 474.7 816.7 491 818.3C507.3 820 523.7 833 531.8 839.5L540 846L540 738L531.8 734.8C523.7 731.7 507.3 725.3 491 719C474.7 712.7 458.3 706.3 442 701.5C425.7 696.7 409.3 693.3 393 701.3C376.7 709.3 360.3 728.7 344 736.7C327.7 744.7 311.3 741.3 294.8 736.5C278.3 731.7 261.7 725.3 245.2 720.5C228.7 715.7 212.3 712.3 196 709.2C179.7 706 163.3 703 147 711C130.7 719 114.3 738 98 742.8C81.7 747.7 65.3 738.3 49 724C32.7 709.7 16.3 690.3 8.2 680.7L0 671Z" fill="#3c80ff"></path><path d="M0 961L8.2 961C16.3 961 32.7 961 49 961C65.3 961 81.7 961 98 961C114.3 961 130.7 961 147 961C163.3 961 179.7 961 196 961C212.3 961 228.7 961 245.2 961C261.7 961 278.3 961 294.8 961C311.3 961 327.7 961 344 961C360.3 961 376.7 961 393 961C409.3 961 425.7 961 442 961C458.3 961 474.7 961 491 961C507.3 961 523.7 961 531.8 961L540 961L540 844L531.8 837.5C523.7 831 507.3 818 491 816.3C474.7 814.7 458.3 824.3 442 821.2C425.7 818 409.3 802 393 806.8C376.7 811.7 360.3 837.3 344 845.3C327.7 853.3 311.3 843.7 294.8 832.5C278.3 821.3 261.7 808.7 245.2 803.8C228.7 799 212.3 802 196 802C179.7 802 163.3 799 147 808.7C130.7 818.3 114.3 840.7 98 853.5C81.7 866.3 65.3 869.7 49 860C32.7 850.3 16.3 827.7 8.2 816.3L0 805Z" fill="#6198ff"></path></svg>